<?xml version="1.0" encoding="UTF-8"?>
<svg version="1.1" viewBox="0 0 2000 2000" width="500" height="500" xmlns="http://www.w3.org/2000/svg">
<path transform="translate(1276,155)" d="m0 0 4 1-1 8-5 22-3 21-2 28v45l3 47 5 42 3 25 1 13v25l-2 19-4 17-6 17-10 16-8 10-9 10-5 5-10 9-15 10-22 12-27 12-26 10-26 9-38 12-30 9-31 11-32 14-27 14-22 13-22 15-14 11-14 12-8 7-10 9-13 13-9 11-13 17-10 15-9 15-17 33-10 23-12 36-5 21-5 34-2 29v14l2 27 5 38 5 23 9 30 11 28 14 29 14 24 13 19 12 16 11 13 11 12 7 8 10 9 11 10 11 9 21 16 24 15 27 14 21 9 28 10 30 7 25 5 34 3 30 1h47l26-2 25-3 11-1 1 4-8 6-21 12-40 20-22 10-32 13-30 11-25 8-44 12-49 10-28 4-50 4-25 1h-22l-42-2-40-4-29-5-39-8-43-12-38-13-28-11-27-12-33-16-22-12-18-10-21-13-11-7-25-17-14-10-12-9-14-11-17-14-13-11-7-7-8-7-11-11-1-3 9-4 36-12 24-10 21-10 22-12 13-8 16-10 27-18v-4h-2l-7-8-9-9-7-8-9-10-9-11-11-13-10-13-14-19-11-16-13-20-13-21-13-23-15-29-16-33-15-36-13-36-8-27v-4l9 1 26 6 31 4 41 2 44-1 37-2 7-1-2-12-10-46-7-49-4-40-1-21v-70l2-31 5-43 7-44 8-35 3-7 4 1 12 11 8 8 11 9 14 11 17 12 17 11 14 8 23 13 24 12 11 5 1-7 8-26 11-32 11-28 11-25 11-24 10-19 13-24 6-10 8-13 10-16 12-18 12-17 13-18 8-10 11-14 10-11 9-11 16-16 4 1 11 33 9 22 14 29 14 25 14 22 15 22 10 13 4-2 10-10 8-7 15-14 13-11 16-13 18-14 18-13 20-14 25-16 17-10 21-12 24-13 23-11 29-13 31-12z" fill="#A0BC55"/>
<path transform="translate(318,811)" d="m0 0 9 1 26 6 31 4 41 2 44-1 37-2 7-1 2-2h15l30-3h32l19 2 27 7 17 9 11 7v2l5 2v2l4 2 5 4 7 8 8 9 8 12 10 17 8 16 5 13 7 18 5 15 3 8 9 27 8 30 4 12 2 9 5 14 10 34 11 28 14 29 14 24 13 19 12 16 11 13 11 12 7 8 10 9 11 10 11 9 21 16 24 15 27 14 21 9 28 10 30 7 25 5 34 3 30 1h47l26-2 25-3 11-1 1 4-8 6-21 12-40 20-22 10-32 13-30 11-25 8-44 12-49 10-28 4-50 4-25 1h-22l-42-2-40-4-29-5-39-8-43-12-38-13-28-11-27-12-33-16-22-12-18-10-21-13-11-7-25-17-14-10-12-9-14-11-17-14-13-11-7-7-8-7-11-11-1-3 9-4 36-12 24-10 21-10 22-12 13-8 16-10 27-18v-4h-2l-7-8-9-9-7-8-9-10-9-11-11-13-10-13-14-19-11-16-13-20-13-21-13-23-15-29-16-33-15-36-13-36-8-27z" fill="#724B82"/>
<path transform="translate(318,811)" d="m0 0 9 1 26 6 31 4 41 2 44-1 37-2 7-1 2-2h15l30-3h32l19 2 27 7 17 9 11 7v2l5 2v2l4 2 5 4 7 8 8 9 8 12 10 17 8 16 5 13 7 18 5 15 3 8 9 27 8 30 4 12 2 9 5 14 10 34 11 28 14 29 14 24 13 19 12 16 5 6-1 2-11-10-7-5-5-5-10-9-8-8-8-7-8-8-2-1v-2l-4-2-10-9-14-11-11-9-11-8-15-10-11-6-15-7-18-6-18-3-10-3h-12l-12 2-19 5-16 6-17 8-24 15-33 22-5 1-18-18-7-8-9-10-9-11-11-13-10-13-14-19-11-16-13-20-13-21-13-23-15-29-16-33-15-36-13-36-8-27z" fill="#4F8FC5"/>
<path transform="translate(1276,155)" d="m0 0 4 1-1 8-5 22-3 21-2 28v45l3 47 5 42 3 25 1 13v25l-2 19-4 17-6 17-10 16-8 10-9 10-5 5-10 9-15 10-22 12-27 12-26 10-26 9-38 12-30 9-31 11-32 14-27 14-22 13-22 15-14 11-14 12-8 7-10 9-13 13-5 6v-3l10-13 9-11 24-26 9-10 7-6 1-2h2l2-4h2l2-4 10-10 7-8 11-12 1-2h2l2-4 11-13 13-17 13-18 11-19 7-14 5-15 5-24 1-6v-19l-3-17-9-27-10-19-8-14-12-17-9-12-10-15 14-14 8-7 15-14 13-11 16-13 18-14 18-13 20-14 25-16 17-10 21-12 24-13 23-11 29-13 31-12z" fill="#C13743"/>
<path transform="translate(860,184)" d="m0 0 4 1 11 33 9 22 14 29 14 25 14 22 15 22 12 16 9 14 10 13 12 18 10 17 8 17 8 24 3 17v19l-5 26-5 16-6 13-8 15-10 15-14 19-11 13-8 10-2 3h-2l-2 4-15 16-14 16-4 4h-2l-2 4-8 7-11 12-12 13-10 11-11 14-6 8-2 5-10 12-13 19-11 18-12 23-2 1-1-5 1-15 6-28 6-39 2-22v-33l-3-24-6-17-10-22-8-11-10-11-14-11-9-7-11-7-21-12-23-11-16-7-9-5 1-7 8-26 11-32 11-28 11-25 11-24 10-19 13-24 6-10 8-13 10-16 12-18 12-17 13-18 8-10 11-14 10-11 9-11 14-14z" fill="#F5E744"/>
<path transform="translate(1621,761)" d="m0 0 2 1v26l-2 24-5 44-4 23-11 43-13 38-12 28-5 11 16 4 40 8 15 2h39l-1 5-11 21-16 26-13 18-9 12-10 13-12 14-24 26-7 7-8 7-12 11-10 8-13 10-14 10-15 10-26 15-40 20-23 10-38 15-40 13-28 8-40 9-26 4-37 3-49 3-25-1-14-2-3-2 1-3 20-4 43-7 21-6 26-10 17-8 23-13 19-12 19-14 13-11 15-14 14-15 11-14 12-16 14-23 10-19 12-29 10-34 5-24 3-22 1-15v-31l-2-22-6-39v-18l3-14 8-16 8-11 6-7 16-11 16-7 18-6 28-7 37-11 29-12 17-9 15-10z" fill="#8E8E8E"/>
<path transform="translate(639,1088)" d="m0 0h12l15 4 13 2 18 6 16 8 15 8 10 7 13 10 9 7 22 18 6 5v2l4 2 12 12 8 7 9 8v2l4 2 4 3v2l4 2 14 12h2l9 11 7 7 7 8 10 9 11 10 11 9 21 16 24 15 27 14 21 9 28 10 30 7 25 5 34 3 30 1h47l24-1v1l-15 2-77 1-5 2h-44l-13 1h-47l-21-1-61-6-20-3-42-7-42-10-22-6-15-5-9-2-7-3-15-5-30-12-15-7-19-9-9-5-8-3-9-6-8-4-17-10-6-4-8-4v-2l-5-1-8-6-6-3-10-7-9-6-10-7v-2l-4-1-13-10-9-7v-2l-5-2-9-9v-2l-5-2-8-8-8-5v-3h-3l-5-6-2-2 1-4 10-5 10-7 15-10 22-14 17-9 21-8 22-6z" fill="#7D5B8D"/>
<path transform="translate(1429,455)" d="m0 0h22l20 4 16 5 16 8 11 7 13 11 11 11 10 14 8 15 8 24 3 17v25l-3 16-7 21-10 19-8 11-11 12-10 9-15 10-19 9-19 5-14 2h-26l-22-4-16-6-15-8-13-10-10-9-9-9-9-13-11-21-5-17-3-19v-21l4-24 4-13 10-20 13-17 15-15 14-10 17-9 18-6z" fill="#A76633"/>
<path transform="translate(1621,761)" d="m0 0 2 1v26l-2 24-5 44-4 23-11 43-13 38-12 28-5 8-10-2-31-8-16-2-15 1-16 5-14 7-12 9-7 7-10 13-17 25-5 5 1-11 4-21 2-16 1-15v-31l-2-22-6-39v-18l3-14 8-16 8-11 6-7 16-11 16-7 18-6 28-7 37-11 29-12 17-9 15-10z" fill="#E95F31"/>
<path transform="translate(1053,731)" d="m0 0h7l2 4 2 35 4 92 2 37v40l-4 16-4 10-8 10-9 8-16 10-17 9-22 12-23 12-22 12-35 18-10 6-27 14-3-1-6-14-5-16-1-8v-13l2-12 7-20 7-12 9-11 11-10 13-9 38-20 23-13 12-7 1-5-2-48v-34l3-21 4-13 8-17 9-13 11-11 10-7 14-6 9-3z" fill="#A76633"/>
<path transform="translate(1090,1011)" d="m0 0h19l15 4 12 6 23 14 17 11 13 8 15 9 24 15 13 8 20 12 17 11 14 10-1 4-10 14-7 7-13 9-16 7-15 4-7 1h-17l-15-3-19-8-16-9-11-7-23-14-23-13-4-2-5 1-18 11-15 10-11 7-13 8-15 8-24 8-16 3h-18l-15-3-18-7-12-9-7-6-8-11 2-4 18-12 23-15 17-11 33-21 14-9 20-13 16-10 26-16 13-5z" fill="#A76633"/>
<path transform="translate(1116,740)" d="m0 0h15l14 3 16 8 9 6 12 11 9 12 8 15 4 14 1 7 1 102 12 7 52 26 18 13 13 12 7 7 10 15 8 18 3 14v20l-3 12-7 14-7-3-27-14-22-11-14-8-38-19-22-12-36-18-18-11-12-11-6-9-5-12-3-19v-14l4-139 2-33z" fill="#A76633"/>
<path transform="translate(1507,986)" d="m0 0 20 1 27 7 16 5-1 5-7 15h-2l-2 6-7 12-12 18-9 13-10 13-11 13-9 11h-2l-2 4-16 16-11 9-11 10h-2v2l-13 10-18 13-19 12-15 9-11 6-16 8-17 8-15 6-16 6-3-1 8-7 12-11 7-7 7-8 14-17 13-19 11-18 10-19 12-29 6-20 3-1 2-4 10-16 13-18 7-9 2-3h2l2-4h2v-2h2v-2l13-10 10-6 14-5z" fill="#B1B2B0"/>
<path transform="translate(298,1675)" d="m0 0h49l1 2v85l1 20 6 4h6l5-5 1-105 1-1h28l2 2 1 107 6 2h6l5-3 1-4 1-104h48l1 1v99l-2 8-4 6-5 6-10 6-8 2h-24l-12-3-10-5-9-7-4 2-9 7-10 4-9 2h-25l-11-4-6-4-6-7-4-8-2-11v-93z" fill="#9A551D"/>
<path transform="translate(1392,540)" d="m0 0h13l13 4 7 5 8 11 5-4 7-8 6-4 8-3h19l12 4 10 9 5 9 4 12 2 12v17l-3 16-3 10-6 11-6 7-4 2-9 3-9 1h-10l-13-4-1-3-4-1v-2h-2l-4-5-4 3h-3l-1 2-3 3-7 4-10 3h-24l-7-3-3-1-6-7-4-4-5-8-2-6 1-7 4-6 3-2h10l6 4 4 8 6 7 10 1 5-2 3-4 3-9-3-5-8-4-17-3-4-4-2-3v-7l3-5 5-3 9-1 7-2 2-7-3-5h-5l-1 1h-8l-2 6-3 2-2 4h-3-6l-6-4-4-6 1-9 6-9 7-6 11-4z" fill="#B08052"/>
<path transform="translate(566,1673)" d="m0 0 15 1 8 3 6 4 7 9 2 8v103h-49l-1-1-1-94-3-6-4-3h-15l1 102-1 2h-50v-125l1-1h48l1 1v11l18-11 6-2z" fill="#A76634"/>
<path transform="translate(1467,1675)" d="m0 0h22l1 1v104h13l6-3 2-2 1-6 1-93 1-1h48l1 1v99l-2 10-5 8-5 5-8 4-4 1h-22l-12-3-15-9v9l-1 1h-48l-1-2v-115l1-8z" fill="#9A551D"/>
<path transform="translate(1021,1675)" d="m0 0h23l1 1 1 107 2 5 3 2h12l3-1 1-4 1-54h-15l-1-1v-10l1-1h15v-43l48-1 2 1 1 43 4 3v8l-4 2-1 40-4 10-9 10-11 6-16 4-7 1h-29l-14-2-13-5-9-6-7-8-4-11v-94l1-1z" fill="#9A551D"/>
<path transform="translate(1347,1674)" d="m0 0h34l17 4 16 8 8 9 4 8 1 6v91l-1 1h-49l-1-2v-101l-2-9-5-3h-9l-6 4-2 5v8l1 4 5 2 1 1v6l-4 5-1 79-1 1h-48l-1-1v-75l5-11v-3l-4-2-3-2 1-7 6-9 7-6 17-8z" fill="#A76735"/>
<path transform="translate(902,1674)" d="m0 0h34l14 3 12 5 9 6 7 8 4 11v93l-1 1h-48l-1-1-1-106-2-6-6-2h-8l-5 3-3 6v8l7 7v6l-4 7-1 77-1 1h-49v-76l9-9-2-4-9-6-1-3 7-10 7-7 15-8 9-3z" fill="#A76634"/>
<path transform="translate(1668,1664)" d="m0 0h7l12 3 1 4-10 7v2l11 7 7 7 5 10 1 4 1 40-1 52-1 1h-48l-1-1-1-75-5-2-9 1-6 4-4 7-2 10v21l3 13 2 4 6 3 8 2 3 3-1 4-5 4-13 4h-21l-10-3-9-6-8-9-5-10-2-8v-20l5-13 8-11 8-7 11-6 13-3h16l13 3 5 2-2-8-5-8-8-5-7-2h-14l-13 5-10 8-3 1-10-5 1-4 8-7 17-9 13-4 10-1h14l16 1 5-4z" fill="#A76734"/>
<path transform="translate(1456,457)" d="m0 0h7l21 6 16 7 11 7 14 11 13 13 10 14 8 15 8 24 3 17v25l-3 16-7 21-10 19-2 2h-3l-2 6h-2v2l-6-2-6-3v-2h2l-1-3 2-7-1-3v-9l-1-2v-24l-3-12-4-11v-3l-3-1-3-10-3-5 1-4h-2l-2-10h-2l-2-7v-3l-1-4v-3l3-1v-2l3-1 1-8v-15l-2-9-5-1-1 1-2 9-1 1h-8l-2-1-2-11-8 2-4-1-25-1v2l-5 1v5l12 3 1 4-3 1 3 1v2l-6 2-4 5-3 2-11 1-8-4-3-3h-2l-5-5-2-5-6-1v-4l-5-3 1-3-5-5-2-3v-5h-3l-4-5 1-7 9-4 7-1 1-2 13 1 6-2 8-4 20-2z" fill="#9A551D"/>
<path transform="translate(662,1673)" d="m0 0h16l17 2 14 5 13 7 4 4-1 4-6 3-5 1-10-6-10-4-4-1h-15l-5 2-4 3 1 4 7 5 19 7 12 5 13 7 10 9 6 9 3 8v16l-4 12-6 10-9 8-12 6-20 4h-32l-18-3-13-5-5-3-1-2v-45h50l1 4v32l1 8 1 1h10l7-4 4-6 1-4v-15l-3-6-6-7-8-5-25-9-18-6-10-7-7-8-1-3v-13l6-9 10-7 12-5 10-2z" fill="#9A551E"/>
<path transform="translate(1116,740)" d="m0 0h15l14 3 16 8 9 6 12 11 9 12 8 15 4 14v17l-6 4-4 5-2 5-5 3h-2l-2 4-4 5-6 3-5 2-1 3-10 1h-17l-5-1-7 1-8-2-4-7-4-3v-40l2-55 1-11z" fill="#9A551D"/>
<path transform="translate(639,1088)" d="m0 0h12l15 4 13 2 18 6 16 8 15 8 10 7 13 10 9 7 22 18 6 5v2l4 2 12 12 8 7 9 8v2l4 2 4 3v2l4 2 14 12h2l9 11 7 7 7 8 10 9 11 10 11 9 7 5v1l-10 1v-2l-3-2-7-1-1-2-9-3-15-8-8-4-19-12-6-3-9-7-9-6-3-1v-2l-5-2-4-3v-2l-5-2-6-3-5-5-10-7-10-8-6-4v-2l-4-2-10-9-6-4-5-5-5-3-13-13-10-8-6-7-5-4-2-1v-3h-3l-1-3-5-5-4-5-2-1v-3l-3-1-7-8-9-7-10-3h-15l-26 6-8 3-16 7-19 10-10 7-13 8-13 9-11 7-6 2-1-3 10-5 10-7 15-10 22-14 17-9 21-8 22-6z" fill="#796B9C"/>
<path transform="translate(1204,1065)" d="m0 0 5 1 19 12 13 8 20 12 17 11 14 10-1 4-10 14-7 7-13 9-16 7-15 4-7 1h-17l-15-3-19-8-9-5 1-10 1-2-1-8-1-2 3-5 2-6 4-16 5-6h2l2-5 7-6h6l1-11 2-5z" fill="#9A551D"/>
<path transform="translate(780,1674)" d="m0 0h30l9 2 11 6 10 10 2 5-6 4-2 3-4-1-9-10-6-4-7-2h-9l-7 3-4 6 2 7 5 5 17 10 12 6 12 9 7 8 4 10 1 4v14l-3 10-4 6-5 6-10 7-13 4-5 1h-26l-13-3-11-6-8-7-4-5 1-4 8-8 3 1 4 6v2l4 2 9 5 5 1h8l8-3 4-6v-8l-3-6-8-7-17-9-14-8-8-8-5-10-1-4v-12l4-10 4-6 9-8 14-7z" fill="#9A551E"/>
<path transform="translate(895,813)" d="m0 0h9l14 3 10 5 10 9 7 10 4 11 1 4v19l-3 10-6 10-9 10-9 6-12 4-6 1h-9l-15-3-12-7-10-10-7-14-3-12v-11l5-17 6-9 10-10 12-6z" fill="#A76633"/>
<path transform="translate(1279,819)" d="m0 0h9l14 3 10 5 10 8 7 10 5 15 1 6v9l-5 17-6 10-8 8-9 5-12 4-6 1h-13l-13-4-11-6-7-7-6-10-4-10-1-4v-20l4-12 8-12h2l1-3 14-9 9-3z" fill="#9A551D"/>
<path transform="translate(1085,1151)" d="m0 0h19l13 4 10 6 7 7 7 11 3 7 1 5v20l-3 10-6 10-5 6-11 8-13 5-4 1h-16l-12-3-10-6-10-9-8-15-3-10v-14l4-12 6-12 11-11 9-5z" fill="#9A551D"/>
<path transform="translate(900,961)" d="m0 0h8v2l3 1 1 3 9 4 10 4 4 7 4 2 1-3h3l1 6 5 1 2 3v3l4 2 4 1 5 10 2 7h2l-1 4h-2l1 3-3 4-1 4-31 16-19 10-14 8-25 13-3-1-6-14-5-16-1-8v-13l2-12 7-20 7-12 5-6 10-8z" fill="#9A551D"/>
<path transform="translate(662,845)" d="m0 0 5 1 5 5 6 5 3 1v2h2l4 4h3l10 13 9 15 8 15 4 8 5 13 7 18 5 15 3 8 9 27 8 30 4 12 2 9 5 14 10 34 11 28 14 29 7 12-1 2-3-3-3-6-7-6-2-6-3-8-1-3-4-2-3-3v-2h-2l-6-8-6-10-13-26-5-7-6-11-7-13-9-17-4-9-9-19-4-11-3-5-10-29-3-7-3-12-3-17-6-11-2-6-4-8-4-18-2-10-4-10-1-9-3-5z" fill="#6B9FC7"/>
<path transform="translate(1158,1673)" d="m0 0 19 1 13 4 10 6 5 4 6 9 3 10v93l-1 1h-48l-1-100-4-8-7-4h-8l-10 5-5-1-7-6 5-5 14-7z" fill="#9A551D"/>
<path transform="translate(1265,1675)" d="m0 0h17l2 1v124l-1 1h-48l-1-2v-119l1-4z" fill="#9A551D"/>
<path transform="translate(1463,544)" d="m0 0h15l10 3 8 7 7 14 4 14v20l-2 12-4 12-6 10-8 7-8 3-4 1h-18l-9-4-7-8-2-9 3-5h7l4 4 5 8 6 3h10l5-3 5-6 4-13v-9l-5 1-8 4-14 1-10-3-6-4-7-8-4-10v-14l3-10 7-9 8-6 5-2z" fill="#FDFDFD"/>
<path transform="translate(492,1702)" d="m0 0 7 1 8 3 4 1v2l4 1 3 5 5 2 3 2 2 7 2 8 1 15 1 50-1 2h-50l1-82 4-5 3-10z" fill="#9A551D"/>
<path transform="translate(662,1673)" d="m0 0h16l17 2 14 5 13 7 4 4-1 4-6 3-5 1-10-6-10-4-4-1h-15l-5 2-4 3 1 4 7 5 19 7 12 5 13 7 1 2-16-2-7 1-3-1v2l-3 1-1 2-7 1v4l2 4-2 5v3l1 4-4-2-18-7-29-10-10-7-7-8-1-3v-13l6-9 10-7 12-5 10-2z" fill="#A76634"/>
<path transform="translate(906,1709)" d="m0 0 1 2 3 1 1 5-1 6-1 77-1 1h-49v-76l10-10 5-1 4-2 3 1 11 1 1-4 7 4 4-1z" fill="#9A551D"/>
<path transform="translate(1685,1710)" d="m0 0 8 1 6 4 1 6h2l1 27-1 52-1 1h-48l-1-1v-24l1-50 5-7h3v-2l5-2 14-3 4-1z" fill="#9A551D"/>
<path transform="translate(1425,1715)" d="m0 0h1v86h-49v-51l1-18 2-4 1-4 4 1 4-5 2 2 5-1 8-2 1-3 9 1 1 3 10-2z" fill="#9A551D"/>
<path transform="translate(1616,1720)" d="m0 0h9l5 2-1 9-3 8-1 6v21l3 13 2 4 6 3 8 2 3 3-1 4-5 4-13 4h-21l-10-3-9-6-8-9-5-10-2-8v-20l1-3h2l2-4 2-3h2v-3l4-3 10-1h7l3-1 8-1-1-3h2v-2l-3-1z" fill="#9A551E"/>
<path transform="translate(581,1718)" d="m0 0 10 2v2h3l1 2 8 3 1 74h-46l-3-2v-69l2-4 6-1v-2l11-3z" fill="#9A551D"/>
<path transform="translate(1301,822)" d="m0 0 7 3 9 6 5 4 7 10 5 15 1 6v9l-5 17-6 10-8 8-9 5-12 4-6 1h-13l-8-2 3-2 7-1-4-6v-2h-2v-7l3-6 3-7 5-7 1-8 4-3 2-9 2-4 2-13 2-4 7-3 4-3h3v-3l-4-3-5-1z" fill="#A76633"/>
<path transform="translate(1068,1157)" d="m0 0 2 2v6h2v3l3 1 3 8 4 4 1 7 5 4v8h2l4 7 2 7 3 3 6 12 3 7 2 6h2l1 3 3 2-13 4h-16l-12-3-10-6-10-9-8-15-3-10v-14l4-12 6-12 11-11z" fill="#A76633"/>
<path transform="translate(945,862)" d="m0 0h5v12l-3 10-6 10-9 10-9 6-12 4-6 1h-9l-15-3-12-7-10-10-6-11 1-6 6-4 2-2 13-1 3-1 20-1 1-3 3-1 4 1h27l7-3z" fill="#9A551D"/>
<path transform="translate(1333,1725)" d="m0 0h6l3 2h10l1 2v72h-48v-58l5-12 5-3 9-2z" fill="#9A551D"/>
<path transform="translate(966,1723)" d="m0 0 8 4v-2h3l1 2 2-2 1 3v73h-48v-64h1l1 7 2 1 2-1 2-7 8-8h2v-2l6-3z" fill="#9A551D"/>
<path transform="translate(1394,544)" d="m0 0h12l11 3 9 8 3 7v13l-3 6-5 7 1 5 7 6 4 8v16l-3 9-9 10-5 3-10 3h-15l-12-4-7-5-6-9-1-4v-7l4-4h5l4 5 6 10 6 5 2 1h12l5-3 3-1 2-5 2-4v-11l-4-8-6-4-18-2v-2l-3-1-1-5 4-4 2-1 11-1 7-4 3-5v-9l-3-6-3-3-3-1h-13l-5 5-6 11-1 1h-5l-4-4v-8l3-5 7-7 10-4z" fill="#FDFDFD"/>
<path transform="translate(780,1674)" d="m0 0h30l9 2 11 6 10 10 2 5-6 4-2 3-4-1-9-10-6-4-7-2h-9l-7 3-4 6 2 7 5 5 8 5-1 2h-9l-2-1-1 3-3 2h-5v5l-8 5-3 4v3l3 2v4h2v4l6 2 7 7-2 1-26-14-10-9-6-11-1-4v-12l4-10 4-6 9-8 14-7z" fill="#A76633"/>
<path transform="translate(1050,814)" d="m0 0h7l3 6-1 10-4 10-5 8h-2l-2 4-8 10h-2l-2 4h-2l-1 3-7 6-5 5h-2v2l-9 6-8 7-11 7-7 1-1-11v-20l6-8h2l2-4 3-4h2v-2l5-2 2-4 14-10 8-8h2v-3l6-3 5-4 7-5z" fill="#9A551D"/>
<path transform="translate(1109,1675)" d="m0 0h7l2 1v42l-11-3h-4l-1 2h-9l-2 4-5 1v2h-2l-2 5-3 5-5 1-1 7-5 4v-15h-15l-1-1v-10l1-1h15v-43z" fill="#A66634"/>
<path transform="translate(1265,1675)" d="m0 0h17l2 1v124h-1l-1-89-6-2h-2v2l-9 3-3 3h-2v2l-8 4-4 8h-2v2h-3v6l-2 7-3 10-2 5-1 38h-1v-119l1-4z" fill="#A86836"/>
<path transform="translate(1021,1675)" d="m0 0h23l1 1v105h-1l-1-54-5 1-3-1-4-4-10-2-7-3-6-2v-2h-2v2h-2v2h-2l-1 6-4 2-1 45h-1v-94l1-1z" fill="#A76633"/>
<path transform="translate(368,1675)" d="m0 0h28l2 2v102h-1l-1-28-2-4-6 1v2l-6 1h-2-5-2l-4 1v24l-2 3v-103z" fill="#A86735"/>
<path transform="translate(1467,1675)" d="m0 0h22l1 1v98h-1l-1-49-1-4h-2l-1-3h-4v2h-4v-2l-9-1h-10l-6 3-3 1-1 6-3 7-1 5h-2v60h-1v-115l1-8z" fill="#A86836"/>
<path transform="translate(1158,1673)" d="m0 0 19 1 13 4 10 6 5 4 6 9 3 10v23l-6-4-6-3-7-10h-3l-7-3-4-1-5 2h-4l-3 7v5l-2 1-1 21h-1l-1-44-4-8-7-4h-8l-10 5-5-1-7-6 5-5 14-7z" fill="#A76633"/>
<path transform="translate(770,1628)" d="m0 0h39v16h61l1 1v13l-1 1h-101v-30z" fill="#A76634"/>
<path transform="translate(418,1675)" d="m0 0h48l1 1v99h-1l-1-64-4-7-3-2-9 1-7 6h-2l-2 5h-2v2l-4 1v2h-2v2l-4 1-1-2-1 3-1-2-2 8-1 37-1 15-2 1z" fill="#A76634"/>
<path transform="translate(298,1675)" d="m0 0h49l1 2v82h-1l-1-29-3-7-4-5-5-2-7-6-5-1-2-2v-3l-5-2-5-5-3 1-4 9-3 14-1 3-1 45h-1v-93z" fill="#A86836"/>
<path transform="translate(1514,1675)" d="m0 0h48l1 1v99h-1v-70h-2l-5-8-5-2-2 1v2h-3l-1 2-7 6-6 5-4 6h-2l-2 5-10 10v-56z" fill="#A76735"/>
<path transform="translate(407,1812)" d="m0 0h60v32l-4 1h-43l-2-1v-20h-9l-2-1z" fill="#9B561F"/>
<path transform="translate(1464,555)" d="m0 0h9l6 3 6 7 3 8v12l-4 7-7 6-3 2h-9l-8-5-4-5-2-8v-8l3-10 4-6z" fill="#A76633"/>
<path transform="translate(1385,1559)" d="m0 0h28l7 3 1 2v31l-1 1h-9l-1-1-1-30-13-3-1 33-1 1h-10l-2-1-2 1h-15l-3-5v-31h11v30l10 2v-19l1-13z" fill="#A86836"/>
<path transform="translate(1670,1629)" d="m0 0h32v11l-10 3-4 4-2 12h-40v-8l3-10 6-7 9-4z" fill="#A76735"/>
<path transform="translate(377,1555)" d="m0 0h6l-2 5 1 5 2 2v17l-2 10-5 3h-10l-5-3-6 3h-11l-5-4-1-2-1-20v-11l3-1h7l2 1 1 31 6 1v-25h6l2 1 1 6v14l1 3 5 1-1-28-5-1-5-3v-1l14-1v-2z" fill="#B17D53"/>
<path transform="translate(1452,496)" d="m0 0h23l5 1 7-1 2 7v4h10l2-9 2-2 5 1 1 8v22l-3 2-5-1-1-2-1-10h-9v10l-3 3-5-1-2-3-1-22h-10v24l-3 2-5-1-1-3-1-19-1-2-6-3-1-4z" fill="#B27B52"/>
<path transform="translate(1026,1086)" d="m0 0h7l10 3 21 7 12 5 12 7 1 3-9 5-8-1-9-2-20-8-3-2-13-4-7-3 1-7z" fill="#9A551D"/>
<path transform="translate(860,1559)" d="m0 0 11 1 1 28 1 2 8 2v-32l11-1 1 1v35l-1 1h-14l-10 1-6-2-3-7v-28z" fill="#B17B51"/>
<path transform="translate(553,1559)" d="m0 0h8l6 1 4-1h9l5 4v33h-10l-1-1-1-26-3-3h-5l-1 29-1 1h-10l-1-1v-35z" fill="#B17B52"/>
<path transform="translate(1563,1559)" d="m0 0h26l6 2 1 2v32l-1 1h-9l-1-1-1-25-1-3-7-1-1 29-1 1h-10l-1-1z" fill="#B17B53"/>
<path transform="translate(438,1559)" d="m0 0h10l1 1v31l-3 5h-29l-1-1v-35h11l1 1 1 31 7-2 1-2v-28z" fill="#B17C53"/>
<path transform="translate(1684,1552)" d="m0 0 7 1 8 7 3 8v13l-5 10-6 5-5 2-9-1-6-4-3-5v-2l4 2 7 4h8l3-10h-14l-6-5-2-10 2-7 5-5 3-2zm-1 5-3 2-1 8 2 9 1 1h5l3-4v-11l-3-5z" fill="#A76735"/>
<path transform="translate(967,1559)" d="m0 0h9l3 1-1 3-6 2v5l6 4-2 4-4 5 1 9 9 1 1-2 1-31h12v24l-2 8-4 4-8 2h-8l-8-2-5-6-1-2v-6l5-5-1-4-3-2v-7l3-4z" fill="#B17C52"/>
<path transform="translate(596,1559)" d="m0 0h10l3 1v2l-7 4v5l5 2-1 4-4 7 1 7 3 2 7-1 1-32 7-1 5 2v23l-2 8-6 4-7 2h-7l-9-3-4-5-1-7 2-4 3-3-1-3-3-2v-7l2-4z" fill="#B27C52"/>
<path transform="translate(1123,1559)" d="m0 0h9l1 1v31l-3 5-10 1-7-1h-11l-2-1v-35h11l1 1v23l1 8 5-1 3-2 1-29z" fill="#A86837"/>
<path transform="translate(455,1559)" d="m0 0 10 1 2 3h9l3-4h6l1 2-1 2h-2l2 5 3 2v25l-1 1h-10l-1-1-1-25-9-2v27l-1 1h-10l-1-2v-14z" fill="#B17B52"/>
<path transform="translate(309,1559)" d="m0 0h14l6 2 4 3 1 8v23l-1 1h-11l-1-31-3-2-5-1-1 34h-11l-1-1v-15l1-17 5-3z" fill="#B17B52"/>
<path transform="translate(777,1559)" d="m0 0h10l4 4 1 32-1 1h-10l-1-2-1-27-7-1-1 1-1 28-1 1h-9l-1-1v-35h15z" fill="#B07A50"/>
<path transform="translate(1323,1560)" d="m0 0h11l1 5v22l1 3 8 2v-31l1-1h11v36h-30l-3-7z" fill="#A76735"/>
<path transform="translate(1470,1558)" d="m0 0 9 1 5 3 3 3 1 3v28h-11l-1-1v-28l-2-4h-6l-2 1v8l3 2v4l-4 1v16l-1 1h-8l-2-1-1-9v-15l3-7 5-4z" fill="#B17B52"/>
<path transform="translate(703,1559)" d="m0 0h10l2 1v2l-6 3v6l5 2-1 5-4 4v8l4 3h7v-33h12v28l-2 5-4 3-12 2-11-2-5-5-2-6 1-5 4-2 1-4-5-3 1-8 3-3z" fill="#B17B52"/>
<path transform="translate(807,1559)" d="m0 0h15l8 5 2 4v28h-11l-1-1-1-31-2-1h-6l-2 2v6l3 3-1 5h-2v16l-1 1h-9l-1-1v-28l5-6z" fill="#B17B52"/>
<path transform="translate(1191,1558)" d="m0 0h8l7 3 4 5 1 2v28h-11l-1-31-2-2h-8v9l4 4-4 4v14l-2 2h-7l-3-1v-26l3-6 5-4z" fill="#B17B52"/>
<path transform="translate(1266,1559)" d="m0 0h14l7 3 3 4 1 6v23l-1 1h-10l-1-1v-23l-10 4-1 2v10l6 7-4 2-10-1-3-5-1-4v-7l2-5 5-4 3-1 12-1-2-4-2-1h-9l-6 3-2-1 5-6z" fill="#B17D53"/>
<path transform="translate(931,1559)" d="m0 0h15l5 3 4 5 1 12v17h-11l-1-1-1-21-7 1-3 4v9l6 8-1 1h-10l-6-5-1-3v-11l5-6 5-2h11l-1-5-2-1h-10l-4 3h-2l1-4 3-3z" fill="#B17C53"/>
<path transform="translate(1227,1559)" d="m0 0h15l6 4 2 5 1 27-1 1h-10l-1-1-1-22-9 3-2 6 1 7 7 6-2 2h-9l-5-3-3-5v-11l5-6 5-2 12-1-1-5h-12l-8 4v-3h2v-2z" fill="#B17C53"/>
<path transform="translate(667,1559)" d="m0 0h14l7 3 3 3 1 3 1 28h-11l-1-1-1-22-9 3-2 5 1 8 5 5v3h-11l-5-5-1-3v-11l3-5 7-3h10l2 1-1-6-6-2-8 1-6 4 2-6 2-2z" fill="#B17C53"/>
<path transform="translate(1062,1559)" d="m0 0 10 1 2 6 8-3 2-4 4 1v7l7 6 1 11-3 7-5 4-4 2h-14l-6-3-3-6v-28zm11 9-1 5v18l4 3 5-1 3-3 1-3v-9l-3-7-6-3z" fill="#A86836"/>
<path transform="translate(1536,1559)" d="m0 0h13l5 3 3 5 1 3v15l-3 7-3 3-3 1h-17l-4-5-4-15v-7l8-7h2v-2zm-2 3v7l5 21 1 2 5-1 2-3v-18l-3-6-3-2z" fill="#B17C53"/>
<path transform="translate(1153,1558)" d="m0 0 10 1 6 5 2 3 1 9-2 13-5 6-4 1h-14l-4-4-6-19 1-5 7-5h2l2 10 5 16 5 2 1-6v-13l-3-7-3-2-6-1v-2z" fill="#B17B52"/>
<path transform="translate(1642,1552)" d="m0 0h7l9 4 3 4v9l-4 3-1 3 4 2 3 6-1 7-5 5-6 2h-13l-7-4-3-5v-2l4 2 7 4h6l5-5-1-6-3-3-9-3v-3l10-2 2-4-1-6-3-2h-6l-7 6h-3l1-5 8-6z" fill="#B17C52"/>
<path transform="translate(900,1541)" d="m0 0h24v2l-7 1h-8l4 6v45l-1 1h-10l-1-1-1-44-3-5 1-4z" fill="#B17D52"/>
<path transform="translate(841,1540)" d="m0 0h9l11 1v2l-14 1 4 6 1 10v35l-1 1h-10l-1-1-1-44-4-4 1-5z" fill="#B17C53"/>
<path transform="translate(1499,1559)" d="m0 0h13l5 3 4 6h-3l-6-4-5-1-3 1-1 5 5 2 11 7 3 6-1 6-7 6-2 1h-12l-6-4-2-5 4 1 4 3h7l3-3-1-4-11-6-5-4-1-7 3-5z" fill="#B17C54"/>
<path transform="translate(1507,983)" d="m0 0 16 1 20 4 25 7h4l-1 3h-7l-29-8-8-2-20-1-12 2-14 5-14 9-7 6h-2v2h-2v2l-4 4h-2l-2 4-12 16-20 30h-2l3-13 4-2 8-11 8-12 9-12 11-12 12-9 16-8 14-4z" fill="#B17B52"/>
<path transform="translate(1008,1559)" d="m0 0h13l5 3 2 5-5-1-5-3-6 1 1 5 12 8 4 4v8l-5 6-9 3-9-2-5-5-1-2 5 2 2 1h8l3-3-2-5-11-6-4-4-1-4 2-6z" fill="#A86836"/>
<path transform="translate(1385,1559)" d="m0 0h28l7 3 1 2v31l-1 1h-9l-1-1-1-30-13-3-1 33h-1l-1-31-9 3v-7z" fill="#B17B52"/>
<path transform="translate(1464,555)" d="m0 0h9l6 3 6 7 3 8v12l-4 7-7 6-3 2h-9l-8-5-4-5-2-8v-8l3-10 4-6zm1 5-6 4-3 7v14l5 9 4 2h8l8-6 2-3 1-8-1-8-4-7-5-4z" fill="#AD8E55"/>
<path transform="translate(523,1559)" d="m0 0h13l7 3 3 6 1 5v8l-2 9-5 6-4 1h-11l-5-2 1-4 6 2 6-1 2-10v-11l-2-5-3-2h-7l-3 1 1-5z" fill="#B17C53"/>
<path transform="translate(1028,739)" d="m0 0 2 1-4 5-1 3h-3l-2 5-4 6-6 7h-3v2l-4 4-2 1v3h-2l-2 6-3 4-4 10-2 4h-2v3l-2 1-2 3 1-9 6-16 8-15 8-10 9-9 10-7z" fill="#B17B52"/>
<path transform="translate(632,1559)" d="m0 0h13l5 3 2 6v28h-10l-2-2v-30l-11-1-3-3z" fill="#B17D55"/>
<path transform="translate(387,1559)" d="m0 0h16l5 3 2 6v28h-11l-1-1v-31l-11-1z" fill="#B17C53"/>
<path transform="translate(1298,1559)" d="m0 0h12l6 4 1 4v28l-1 1h-9l-2-2v-27l-1-3-9-1v-3z" fill="#B07B53"/>
<path transform="translate(1034,1559)" d="m0 0h14l5 4 1 2 1 11v19l-1 1h-10l-1-1v-31l-11-1v-3z" fill="#A76735"/>
<path transform="translate(494,1559)" d="m0 0h14l5 5 1 2 1 18v12h-12v-32l-11-1-1-3z" fill="#B17B52"/>
<path transform="translate(1684,1552)" d="m0 0 7 1 8 7-1 2-5-2v2h-4l-2-4-6 1-1 8 2 9h5l3-3 1 4v10h-1v-5h-14l-6-5-2-10 2-7 5-5 3-2z" fill="#B17C52"/>
<path transform="translate(740,1560)" d="m0 0h11l1 1v34l-3 1h-9z" fill="#A76735"/>
<path transform="translate(759,1560)" d="m0 0h11l2 3-1 4-1 28-1 1h-9l-1-1z" fill="#A76634"/>
<path transform="translate(1123,1559)" d="m0 0h9l1 1v31l-3 5-7-1-1-1v-34z" fill="#A86836"/>
<path transform="translate(1345,1560)" d="m0 0h11v14l-1 21h-9l-2-3v-31z" fill="#A76735"/>
<path transform="translate(1062,1559)" d="m0 0 10 1v4h-2l2 4 1 23 3 2v2l-9 1-5-5-1-3v-28z" fill="#A76735"/>
<path transform="translate(416,1560)" d="m0 0h11l1 1v28l-2 2h-10z" fill="#B27B52"/>
<path transform="translate(931,1570)" d="m0 0h9l-1 4-5 3-1 2v9l6 8-1 1h-10l-6-5-1-3v-11l5-6z" fill="#B17B52"/>
<path transform="translate(618,1559)" d="m0 0 7 1 1 4v20l-1 6-2-4-3 1-1-4-4-2v10h-1v-31z" fill="#B17C53"/>
<path transform="translate(1393,1563)" d="m0 0h1v32l-5-1-5-5v-22l5-3z" fill="#A76633"/>
<path transform="translate(1498,557)" d="m0 0 3 3 6 16 1 5v26l-4 16-6 12-8 9-7 4-16 2-14-2-10-7-5-10v-5l2 3 3 8 8 7 6 2h18l10-3 8-6 5-7 4-10 3-11 1-7v-20l-5-16z" fill="#A6B876"/>
<path transform="translate(1568,1568)" d="m0 0h6v28h-10v-26z" fill="#A66635"/>
<path transform="translate(575,1569)" d="m0 0h5v2l3 1 2 12v12h-10l-1-1v-25z" fill="#A76633"/>
<path transform="translate(1585,1535)" d="m0 0h10l1 1v6l-2 1-7-1v2l9 2v9h-29l-2-1 1-3 19-1z" fill="#B17D52"/>
<path transform="translate(1433,607)" d="m0 0 2 3v14l-4 10-7 8-8 5-11 3h-13l-9-2-10-6-8-10-2-5v-10l5-4h6l5 6 3 6-1 2-6-10-1-1-7 1-1 2v7l3 8 3 3v2l12 6 7 2h15l12-4 8-7 5-8 1-5z" fill="#A5B874"/>
<path transform="translate(437,1560)" d="m0 0h6l3 10 2 4v14l-6 2h-4z" fill="#A66633"/>
<path transform="translate(1008,1559)" d="m0 0h13l5 3 2 5-5-1-5-3-6 1 1 6-1 3 1 3h-2v5l-6-3-4-4-1-4 2-6z" fill="#B17B53"/>
<path transform="translate(1180,1571)" d="m0 0h4l2 6 3 1v16l-2 2h-7l-3-1 1-22h2z" fill="#A76633"/>
<path transform="translate(304,1575)" d="m0 0h5l2 6 1 2v13h-11l-1-1v-15l1-3z" fill="#A86836"/>
<path transform="translate(511,1565)" d="m0 0 3 1v22l-1 2-5 1-2-1-1 2-1-16 2-7z" fill="#A76633"/>
<path transform="translate(910,1561)" d="m0 0 2 1v13l-3 2v5l2 2 1 4-3 1-3-1v-2h-4v-23l1 2 4-1z" fill="#A76633"/>
<path transform="translate(615,1581)" d="m0 0 5 2 1 3h2l1 6-6 4-7 2h-7l-9-3v-2h2v-2l-2-1 7-1 4 4 7-1 1-1z" fill="#B17B52"/>
<path transform="translate(1500,1546)" d="m0 0h11l2 3 14 1 2 1v4h-26l-4-1v-7z" fill="#B17B52"/>
<path transform="translate(322,1546)" d="m0 0h11l1 1v7l-9 1h-22v-4l17-2z" fill="#B17B52"/>
<path transform="translate(985,1546)" d="m0 0h10l1 1v7l-2 1h-28l-1-4 8-1h10z" fill="#B17D54"/>
<path transform="translate(672,1546)" d="m0 0h10l2 4h14l3 2-1 3h-24l-5-1v-7z" fill="#B17F57"/>
<path transform="translate(1458,1577)" d="m0 0 5 1 2 3v14l-1 1h-8l-2-1v-12z" fill="#A76735"/>
<path transform="translate(901,1563)" d="m0 0h1v23h4v2l5-1-2-4h-1v-6l4-2v-12h1v32l-1 1h-10l-1-1z" fill="#B17B53"/>
<path transform="translate(1484,497)" d="m0 0 3 1 1 9 7 3-2 2-5 1v11l-2 3-4-2v-25z" fill="#AAB590"/>
<path transform="translate(1458,617)" d="m0 0 9 1 5 1 3-1v2h2l-1 5-2 3h-3v2h-7l-6-7v-2l-3-1 1-2z" fill="#A76633"/>
<path transform="translate(1084,1559)" d="m0 0 4 1v7l4 3-2 7-5 2-3-7-9-4v5h-1l-1-5-2-2 3-3 2 3 8-3z" fill="#B17B53"/>
<path transform="translate(831,1685)" d="m0 0 4 2 7 8-2 4-6 3-6-5v-2h-2l-1-9z" fill="#9A561F"/>
<path transform="translate(740,1560)" d="m0 0h11l1 1v14l-1-3-3 1-1 2-7 2z" fill="#B17D55"/>
<path transform="translate(1503,498)" d="m0 0h4l1 26-1 2h-4l-1-2-1-11-6-1 1-2 5-2z" fill="#A7B77F"/>
<path transform="translate(790,1570)" d="m0 0h1l1 25h-4v-3h-2v-2h-2v-2h-3v-12l4 1 1-2 2 1z" fill="#A76634"/>
<path transform="translate(1460,497)" d="m0 0 8 1v3l-1 23-1 2-4-2-1-21-5-3v-2z" fill="#A2BA62"/>
<path transform="translate(1270,1546)" d="m0 0h10l5 2 3 2 7 1 2 3-1 1h-19l-5-3-2-2z" fill="#B17E53"/>
<path transform="translate(1496,496)" d="m0 0h7l-3 11-1 1h-8l-2-1-1-9 1-1z" fill="#A76633"/>
<path transform="translate(1067,1019)" d="m0 0 2 1-8 8h-2v2l-9 3-1 3-10 5-9 2 5-4 11-7 18-11z" fill="#B17B52"/>
<path transform="translate(1502,1534)" d="m0 0h7l7 2 3 2 6 1 1 4-18-1-6-4-1-3z" fill="#B07B55"/>
<path transform="translate(1668,1586)" d="m0 0 4 2 7 4h8l2-5 1 2h2v2h2l-1 4-7 3-9-1-6-4-3-5z" fill="#B17E57"/>
<path transform="translate(802,1578)" d="m0 0h5l1 1v14l-7-1-3-2v-8z" fill="#A76633"/>
<path transform="translate(688,862)" d="m0 0 5 5 8 11 8 13 8 15-1 3v-2l-3-1-6-12v-3h-2l-6-10-1-3-3-3-8-10z" fill="#658EB2"/>
<path transform="translate(1043,1567)" d="m0 0h1l1 19 5 3 3-1 1-12h1v19l-1 1h-10l-1-1z" fill="#B17B52"/>
<path transform="translate(420,1575)" d="m0 0 4 1 1 3h-2v4l4 1v6l-1 1h-9v-13z" fill="#A76633"/>
<path transform="translate(517,1550)" d="m0 0 29 1v4h-29l-1-4z" fill="#B07B53"/>
<path transform="translate(1436,602)" d="m0 0 2 1v2l4 2 4 4 2 1v3l4 2-11 2-4 1v-8z" fill="#A76633"/>
<path transform="translate(1393,543)" d="m0 0h14l10 3-3 1-8-2h-12l-12 3-6 4-6 6-1 3v8l3 3h5l3-3-1 4-2 2h-5l-6-7 1-9 7-9 9-5z" fill="#A1BB5D"/>
<path transform="translate(1441,600)" d="m0 0 8 6 7 3 10 1 9-1 10-5 4 1v9l-3 10-1-3 2-13v-2l-13 6h-18l-10-5-5-5z" fill="#A1BA5E"/>
<path transform="translate(1100,1584)" d="m0 0h1l1 7 3-1 5 1 6 1 6-3 1 5 2 2-5 1-7-1h-11l-2-1z" fill="#B17D56"/>
<path transform="translate(1385,1559)" d="m0 0 16 1 4 3-9-1-1 33h-1l-1-31-9 3v-7z" fill="#AD8257"/>
<path transform="translate(1438,626)" d="m0 0 2 3 3 8 8 7 6 2h22v3l-14 1-12-2-10-7-5-10z" fill="#A2BA64"/>
<path transform="translate(923,1575)" d="m0 0h4l2 5v6l-3 4h-2v2h-2l-1-3v-11z" fill="#A66837"/>
<path transform="translate(1387,585)" d="m0 0 3 1-4 2-1 4 1 3 2 1v2h13l9 3 6 8 1 3v11h-1l-2-13-4-6-6-3-16-1-5-5v-7z" fill="#A0BB56"/>
<path transform="translate(1383,1573)" d="m0 0h1l1 16 4 4 5 2v1h-10l-2-1-2 1h-9l3-6 9 2z" fill="#B17D52"/>
<path transform="translate(615,1581)" d="m0 0 5 2 1 3h2l1 6-4 3h-4v-2h-2z" fill="#A76634"/>
<path transform="translate(639,1745)" d="m0 0h28l1 4-1 4-9-3-3-3h-14z" fill="#A76633"/>
<path transform="translate(969,336)" d="m0 0m-1 1m-1 1m-2 1 2 1-12 12 3 7 4 7 3 2v3h2l1 4 3 1 1 5-5-5-11-15-5-9 8-7z" fill="#B4694B"/>
<path transform="translate(617,1745)" d="m0 0h6l1 5-3 7h-2l-1 22h-1z" fill="#A76633"/>
<path transform="translate(1485,499)" d="m0 0h1l2 12-2 13h-3v-20z" fill="#FDFDFD"/>
<path transform="translate(903,666)" d="m0 0 1 2-8 7-11 12-9 10-7 7v-3l10-10 7-8 11-12z" fill="#AD7246"/>
<path transform="translate(867,704)" d="m0 0v3l-7 8-1 4-9 9-5 6v-3l10-13 9-11z" fill="#A96F41"/>
<path transform="translate(1433,607)" d="m0 0 2 3v14l-4 10-7 8-3-1 8-9 3-9z" fill="#A0BB57"/>
<path transform="translate(1504,498)" d="m0 0h2v25l-2 1-1-2-1-13z" fill="#FDFDFD"/>
<path transform="translate(1368,613)" d="m0 0h6l5 6 3 6-1 2-6-10-1-1-7 1-1 2v11h-2l-1-3v-10z" fill="#A0BB59"/>
<path transform="translate(539,817)" d="m0 0h6v1l6 1-4 2-10 1h-11l1-2 3-2z" fill="#6BA0C9"/>
<path transform="translate(1429,562)" d="m0 0 2 2 1 7 3-6 1 4-1 3-1 14h-1l-1-9-1-2-3 5-1-2 1-3z" fill="#A2BA61"/>
<path transform="translate(1503,496)" d="m0 0 5 1v8h-1v-7h-4l-1 10-7 3-8-4v-9h1l1 9h10l2-9z" fill="#B17C54"/>
<path transform="translate(1211,925)" d="m0 0 7 2 2 7-3 2-5-2-2-5z" fill="#9A551D"/>
<path transform="translate(1062,861)" d="m0 0 6 1v16l-2-3-4-9z" fill="#B17C52"/>
<path transform="translate(1209,1583)" d="m0 0h1l1 5v7l-4-1-4-6-2-2z" fill="#A76633"/>
<path transform="translate(1389,555)" d="m0 0h13l5 3 4 5-1 3-4-6-4-2-10-1-5 3h-2l-1 3-1-2 4-5z" fill="#A0BB57"/>
<path transform="translate(1e3 1589)" d="m0 0 5 2 2 1h9v6l-10-2-5-5z" fill="#B17F5A"/>
<path transform="translate(1365,630)" d="m0 0h2l4 6 1 3 16 8v2l-9-3-8-6-6-8z" fill="#A4B96C"/>
<path transform="translate(1460,497)" d="m0 0 8 1v3l-1-2h-4v25h-1l-1-21-5-3v-2z" fill="#B1B2B1"/>
<path transform="translate(780,1588)" d="m0 0h4v2h2v2h2v3l3 1h-10l-1-2z" fill="#B17D55"/>
<path transform="translate(1355,1590)" d="m0 0h1v6h-21v-2l2-1-1-2 9 1 1 2 9 1z" fill="#B17C52"/>
<path transform="translate(1455,494)" d="m0 0 32 1v1l-8 2-4-1-23-1z" fill="#A76633"/>
<path transform="translate(1153,1558)" d="m0 0 8 1-1 4-4 1-8-2v-2z" fill="#AA7440"/>
<path transform="translate(1479,645)" d="m0 0m-4 1h4v3l-14 1-8-1 4-2z" fill="#A4B96B"/>
<path transform="translate(1503,498)" d="m0 0h1l-1 13v10h-1l-1-8-6-1 1-2 5-2z" fill="#A8B683"/>
<path transform="translate(324,1583)" d="m0 0 5 1v2h2l-2 5-6-1v-6z" fill="#A76633"/>
<path transform="translate(1118,1719)" d="m0 0 5 3v8l-4 1z" fill="#A86735"/>
<path transform="translate(1484,497)" d="m0 0 3 1v6l-2-4-1 4v21h-2v-25z" fill="#A3B96A"/>
<path transform="translate(1062,1559)" d="m0 0h3l-1 5h-1l-1 24h-1v-28z" fill="#B18059"/>
<path transform="translate(1121,1589)" d="m0 0h1l1 5 2 2-5 1-6-2 4-4z" fill="#B17E54"/>
<path transform="translate(1430,590)" d="m0 0 3 2 3 9-2 1-6-8 1-3z" fill="#A76633"/>
<path transform="translate(1381,546)" d="m0 0 2 1-8 6-5 5-2 4-1-3 7-9z" fill="#A0BC55"/>
<path transform="translate(879,817)" d="m0 0h2l-1 5-11 2 4-4z" fill="#B08052"/>
<path transform="translate(1432,627)" d="m0 0 1 3-4 6-5 6-3-1 8-9z" fill="#A3BA65"/>
<path transform="translate(1177,1591)" d="m0 0 7 2h3v3h-7l-3-1z" fill="#B17C54"/>
<path transform="translate(1337,658)" d="m0 0 4 2 4 6 2 1v2h2l1 4-7-6-6-7z" fill="#B17C54"/>
<path transform="translate(1079,1593)" d="m0 0h2v2h3v2h-14l3-2z" fill="#B17D52"/>
<path transform="translate(724,1575)" d="m0 0h1l-1 9-2 5h-1v-11z" fill="#A76633"/>
<path transform="translate(717,911)" d="m0 0 3 1 5 12-1 3-2-7h-2l-3-6z" fill="#768EA3"/>
<path transform="translate(881,688)" d="m0 0h2l-2 4-12 12v-3l10-10z" fill="#A76432"/>
<path transform="translate(1387,585)" d="m0 0 3 1-4 2-1 4 1 3 3 3-1 2-5-5v-7z" fill="#A1BB5D"/>
<path transform="translate(375,1585)" d="m0 0 3 1 1 5-4 1-2-1v-5z" fill="#A76633"/>
<path transform="translate(1309,1712)" d="m0 0 4 2-1 5-5 2z" fill="#C2AE8E"/>
<path transform="translate(600,1589)" d="m0 0h2v5l-5 2-2-1v-2h2v-2l-2-1z" fill="#AA6C3C"/>
<path transform="translate(1401,555)" d="m0 0 5 2 5 6-1 3-4-6-4-2-8-1v-1z" fill="#A5B970"/>
<path transform="translate(574,1591)" d="m0 0 5 2h6v3h-10z" fill="#B27B52"/>
<path transform="translate(539,817)" d="m0 0h6l-1 3h-9l-5-1v-1z" fill="#698EAE"/>
<path transform="translate(1420,642)" d="m0 0 2 1-6 4-8 2 1-3z" fill="#A5B871"/>
<path transform="translate(1027,1044)" d="m0 0 1 2-1 3h-2v2l-5 1 1-4z" fill="#B27B52"/>
<path transform="translate(963,367)" d="m0 0 2 1v3h2l1 4 3 1 1 5-5-5-4-6z" fill="#C86F44"/>
<path transform="translate(762,1040)" d="m0 0 3 1 2 10-1 4-4-11z" fill="#A2A991"/>
<path transform="translate(711,896)" d="m0 0 2 2 4 8-1 3v-2l-3-1-2-4z" fill="#738EA5"/>
<path transform="translate(1488,641)" d="m0 0m-1 1 1 3-5 3h-4l1-3z" fill="#A5B874"/>
<path transform="translate(1502,620)" d="m0 0h2l-1 5-4 9-1-4z" fill="#A7B77F"/>
<path transform="translate(1589,1543)" d="m0 0" fill="#A0BC55"/>
</svg>
